<svg width="16" version="1.1" id="Layer_1" xmlns="http://www.w3.org/2000/svg" xmlns:xlink="http://www.w3.org/1999/xlink" x="0px" y="0px" viewBox="0 0 12.2 11" style="enable-background:new 0 0 12.2 11;" xml:space="preserve">
  <style type="text/css">
    .st0543{clip-path:url(#SVGID_2_);}
    .st1543{clip-path:url(#SVGID_4_);fill:#FFFFFF;}
  </style>
  <g>
    <defs>
      <path id="SVGID_1_" d="M6.6,6.7c0,0.3-0.2,0.5-0.5,0.5C5.8,7.2,5.5,7,5.5,6.7V3.8c0-0.3,0.2-0.5,0.5-0.5c0.3,0,0.6,0.3,0.5,0.6
        V6.7z M6.6,8.2c0,0.3-0.2,0.5-0.5,0.5c-0.3,0-0.5-0.2-0.5-0.5V8c0-0.3,0.2-0.5,0.5-0.5c0.3,0,0.6,0.2,0.5,0.5V8.2z M11.4,8
        L7.5,1.4C7.2,0.9,6.7,0.6,6.1,0.6C5.5,0.6,5,0.9,4.7,1.4L0.8,8c-0.3,0.5-0.3,1.1,0,1.6c0.3,0.5,0.8,0.8,1.4,0.8H10
        c0.6,0,1.1-0.3,1.4-0.8C11.7,9.1,11.7,8.5,11.4,8z"></path>
    </defs>
    <clipPath id="SVGID_2_">
      <use xlink:href="#SVGID_1_" style="overflow:visible;"></use>
    </clipPath>
    <g class="st0543">
      <defs>
        <rect id="SVGID_3_" x="-615.3" y="-616.9" width="1440" height="1024"></rect>
      </defs>
      <clipPath id="SVGID_4_">
        <use xlink:href="#SVGID_3_" style="overflow:visible;"></use>
      </clipPath>
      <rect x="-4.4" y="-4.4" class="st1543" width="21.1" height="19.8"></rect>
    </g>
  </g>
</svg>
